# xmcd
#
# Track frame offsets: 
#        150
#        13447
#        29545
#        41959
#        58841
#
# Disc length: 969 seconds
#
# Revision: 0
# Processed by: cddbd v1.5.2PL0 Copyright (c) Steve Scherf et al.
# Submitted via: ExactAudioCopyFreeDBPlugin 1.0
#
DISCID=4803c705
DTITLE=Helen Highwater Stringband - Helen Highwater Stringband
DYEAR=2015
DGENRE=Bluegrass
TTITLE0=Glory Bound
TTITLE1=This Crazy Crazy Feeling
TTITLE2=Blue Train
TTITLE3=Please Baby
TTITLE4=Cryin' and Singin'
EXTD=
EXTT0=
EXTT1=
EXTT2=
EXTT3=
EXTT4=
PLAYORDER=
